<svg xmlns="http://www.w3.org/2000/svg" viewBox="0 0 629.44 357.98"><defs><style>.cls-1{fill:#ec1c24;}.cls-2{fill:#404041;}</style></defs><title>Innomate logo</title><g id="Layer_2" data-name="Layer 2"><g id="Layer_1-2" data-name="Layer 1"><path class="cls-1" d="M0,245.17H19.49V356.08H0Z"/><path class="cls-1" d="M32.63,272.42H51.8v12.84c5.39-7.76,13.15-14.58,26.14-14.58,18.86,0,29.79,12.68,29.79,32v53.39H88.56V308.55c0-13-6.5-20.44-17.9-20.44-11.09,0-18.86,7.76-18.86,20.75v47.22H32.63Z"/><path class="cls-1" d="M116.6,272.42h19.17v12.84c5.39-7.76,13.15-14.58,26.14-14.58,18.86,0,29.79,12.68,29.79,32v53.39H172.53V308.55c0-13-6.5-20.44-17.9-20.44-11.1,0-18.86,7.76-18.86,20.75v47.22H116.6Z"/><path class="cls-1" d="M196,314.73v-.32c0-23.92,19-43.73,44.68-43.73s44.52,19.49,44.52,43.41v.32c0,23.76-19,43.57-44.83,43.57C214.83,358,196,338.49,196,314.73Zm70,0v-.32c0-14.74-10.61-26.93-25.66-26.93-15.37,0-25.2,12-25.2,26.61v.32c0,14.57,10.62,26.77,25.51,26.77C256.18,341.18,266,329.14,266,314.73Z"/><path class="cls-1" d="M290.4,272.42h19.17V285.1c5.39-7.45,12.67-14.42,25.51-14.42,12,0,20.59,5.86,25,14.74,6.65-8.88,15.52-14.74,28.2-14.74,18.22,0,29.31,11.57,29.31,32v53.39H398.45V308.55c0-13.31-6.18-20.44-16.95-20.44-10.46,0-17.91,7.29-17.91,20.75v47.22H344.42V308.39c0-13-6.33-20.28-16.95-20.28s-17.9,7.92-17.9,20.75v47.22H290.4Z"/><path class="cls-1" d="M421.1,332v-.31c0-18.06,14.11-26.94,34.54-26.94a69.89,69.89,0,0,1,22.5,3.49v-2.06c0-11.88-7.29-18.22-20.76-18.22-9.34,0-16.31,2.06-23.92,5.23l-5.07-15.05a71.37,71.37,0,0,1,31.53-6.81c12.52,0,21.86,3.32,27.73,9.34,6.17,6,9,14.9,9,25.83v49.59H478V345.62c-5.7,6.81-14.42,12.2-27.25,12.2C435.05,357.82,421.1,348.79,421.1,332Zm57.36-6v-5.7a53.23,53.23,0,0,0-19-3.33c-12.35,0-19.64,5.23-19.64,13.95v.31c0,8.08,7.13,12.68,16.32,12.68C468.79,343.88,478.46,336.59,478.46,326Z"/><path class="cls-1" d="M508.56,333V288.9H497.94V272.42h10.62v-23h19.17v23h22.5V288.9h-22.5v41c0,7.44,3.8,10.45,10.3,10.45a25.79,25.79,0,0,0,11.88-2.85v15.68a33.07,33.07,0,0,1-17.27,4.28C518.54,357.5,508.56,351.32,508.56,333Z"/><path class="cls-1" d="M548.48,314.57v-.32c0-23.92,16.95-43.57,40.88-43.57,26.61,0,40.08,20.92,40.08,45,0,1.74-.16,3.48-.32,5.38H567.65c2.06,13.63,11.73,21.23,24.08,21.23,9.35,0,16-3.48,22.66-10l11.25,10C617.72,351.8,606.78,358,591.42,358,567.18,358,548.48,340.39,548.48,314.57Zm61.95-6.18c-1.27-12.36-8.56-22-21.23-22-11.72,0-20,9-21.71,22Z"/><path class="cls-2" d="M238.81,190.78c-2.07,6.37,2.25,13.26,8.94,13.71.24,0,.49,0,.73,0h80V87.62H279.36c-4.92,0-9.05,3.8-10.29,8.48Z"/><path class="cls-2" d="M373.21,96.8c-1-5-5.3-9.18-10.45-9.18h-10l13.9,116.89h26.93c.25,0,.5,0,.73,0,6.69-.45,11-7.34,8.94-13.71Z"/><path class="cls-2" d="M415.68,0h-191a11.89,11.89,0,0,0-11.88,11.89v143.6a11.88,11.88,0,0,0,11.88,11.89h4.81L255.94,84.1C257.32,78,262.61,73,268.92,73H373.2c6.3,0,11.59,5,13,11.11l26.45,83.28h3.05a11.89,11.89,0,0,0,11.89-11.89V11.89A11.89,11.89,0,0,0,415.68,0ZM374.94,43.78H265.43a6.69,6.69,0,1,1,0-13.38H374.94a6.69,6.69,0,0,1,0,13.38Z"/></g></g></svg>